<?xml version="1.0" standalone="no"?>
<!DOCTYPE svg PUBLIC "-//W3C//DTD SVG 20010904//EN"
 "http://www.w3.org/TR/2001/REC-SVG-20010904/DTD/svg10.dtd">
<svg version="1.0" xmlns="http://www.w3.org/2000/svg"
 width="16.000000pt" height="16.000000pt" viewBox="0 0 16.000000 16.000000"
 preserveAspectRatio="xMidYMid meet">
<metadata>
Created by potrace 1.11, written by Peter Selinger 2001-2013
</metadata>
<g transform="translate(0.000000,16.000000) scale(0.004167,-0.004167)"
fill="#000000" stroke="none">
<path d="M0 1920 l0 -1920 364 0 c328 0 365 2 377 17 13 15 12 16 -8 11 -13
-4 -26 -2 -29 3 -3 5 4 9 14 9 17 0 32 18 32 37 0 3 -13 3 -29 1 -40 -6 -56
21 -40 69 10 31 9 37 -6 46 -9 5 -25 18 -34 28 -9 11 -26 30 -39 43 -14 15
-20 30 -16 40 4 11 -3 28 -22 47 -24 25 -29 39 -29 84 -1 30 3 55 8 55 4 0 5
9 2 20 -4 11 -2 20 4 20 6 0 11 7 11 16 0 15 14 16 137 9 128 -7 140 -9 160
-31 12 -13 25 -24 28 -24 9 0 65 60 65 70 0 6 4 10 9 10 4 0 19 -60 31 -132
18 -99 24 -173 24 -290 1 -137 3 -158 17 -158 11 0 19 17 28 58 7 31 19 66 26
78 14 22 37 96 41 129 4 32 -15 106 -38 155 -18 37 -22 65 -24 165 -1 66 2
130 7 142 8 23 65 42 79 27 25 -26 34 -243 26 -581 -3 -141 -1 -173 10 -173
23 0 35 38 34 113 -1 70 7 292 12 352 7 71 -26 463 -42 505 -1 3 -1 15 0 27 1
24 -16 63 -29 63 -4 0 -13 -11 -19 -25 -9 -20 -8 -46 4 -116 15 -91 13 -129
-10 -129 -7 0 -19 11 -26 25 -7 14 -20 25 -28 25 -7 0 -16 9 -19 20 -5 20 -33
29 -33 10 0 -5 -5 -10 -11 -10 -13 0 -79 -53 -79 -64 0 -9 31 -4 62 9 16 6 18
1 18 -43 0 -44 -4 -54 -37 -86 -47 -46 -113 -66 -212 -66 -159 1 -273 49 -317
132 -15 30 -19 94 -6 102 5 3 27 -7 48 -23 46 -34 84 -48 84 -31 0 26 -39 80
-58 80 -5 0 -12 8 -16 18 -3 9 -14 31 -24 47 -40 68 -57 137 -57 240 0 100 29
265 47 265 4 0 8 17 8 38 0 20 5 53 10 72 6 19 17 73 25 119 17 93 26 111 60
111 42 0 48 -21 40 -142 -4 -77 -3 -110 4 -103 9 9 24 96 51 284 11 82 55 106
89 50 l20 -32 6 39 c13 76 20 89 50 92 37 5 55 -19 55 -72 0 -56 13 -74 28
-41 13 28 43 33 65 10 9 -9 18 -45 22 -92 18 -200 23 -215 67 -171 13 13 26
22 31 20 4 -1 7 5 7 13 0 9 -6 12 -17 8 -12 -5 -15 -2 -11 8 3 8 2 37 -2 64
-7 43 -5 53 12 72 11 12 33 25 49 28 32 7 41 41 14 51 -37 15 -6 95 42 109 20
5 23 3 23 -19 0 -16 6 -26 15 -26 8 0 15 5 15 10 0 6 8 10 17 10 13 0 14 3 5
12 -7 7 -12 21 -12 31 0 14 5 18 20 14 16 -4 20 0 19 16 -2 27 -16 86 -18 72
-1 -5 -6 -3 -11 5 -6 9 -10 10 -10 3 0 -6 -5 -24 -10 -39 -10 -26 -12 -26 -28
-10 -15 15 -15 18 -2 27 13 9 12 10 -2 5 -41 -13 -49 102 -10 140 15 16 17 16
23 -7 4 -13 7 -19 8 -12 1 14 29 43 42 43 5 0 9 -7 9 -15 0 -8 7 -15 15 -15
21 0 19 -13 -5 -35 -25 -23 -27 -65 -2 -65 12 0 22 -15 34 -56 19 -63 12 -98
-22 -109 -16 -5 -18 -10 -11 -19 6 -7 10 -15 8 -17 -1 -2 0 -3 2 -2 11 7 32
-23 41 -56 5 -20 27 -55 48 -77 38 -39 39 -43 32 -87 -4 -28 -3 -50 4 -57 7
-7 5 -10 -7 -10 -9 0 -17 -7 -17 -15 0 -8 -5 -15 -11 -15 -5 0 -8 4 -5 9 7 11
-29 43 -38 34 -4 -5 -7 -3 -6 2 6 27 -2 35 -33 35 -21 0 -36 7 -45 20 -8 13
-23 20 -41 20 -16 0 -32 6 -34 13 -3 6 -6 4 -6 -7 -1 -17 -4 -16 -25 7 -30 32
-40 21 -31 -32 4 -27 2 -49 -9 -70 -9 -16 -16 -39 -16 -49 0 -28 -32 -52 -58
-45 -21 5 -22 2 -22 -53 1 -33 7 -70 15 -84 11 -20 14 -21 15 -7 0 41 82 157
111 157 8 0 8 4 -1 15 -11 13 -9 15 13 15 13 0 30 -6 36 -14 7 -8 22 -17 35
-20 17 -4 25 -15 29 -38 3 -18 15 -61 27 -95 16 -48 26 -62 46 -67 13 -4 24
-14 25 -24 0 -13 2 -14 6 -2 14 44 16 45 23 20 l8 -25 1 27 c1 26 3 28 50 27
43 -1 50 -5 55 -25 4 -13 11 -24 17 -24 8 0 7 5 -1 15 -19 23 -6 28 31 11 22
-9 28 -15 15 -15 -13 -1 -16 -6 -11 -18 10 -27 13 -103 3 -109 -4 -3 -11 2
-14 11 -6 14 -8 14 -25 -1 -16 -14 -22 -14 -48 -3 -17 8 -31 20 -31 26 0 18
-37 16 -44 -2 -3 -8 -11 -15 -18 -15 -7 0 -23 -15 -35 -34 -21 -33 -21 -34 -3
-51 10 -9 21 -32 25 -52 5 -27 9 -33 18 -24 9 9 8 16 -1 32 -17 26 -6 42 26
36 14 -3 36 2 48 10 32 21 47 8 39 -33 -7 -40 1 -45 15 -9 9 24 10 24 39 7 38
-21 61 -90 42 -126 -10 -17 -10 -41 -2 -100 14 -97 14 -136 1 -136 -5 0 -10 7
-10 15 0 8 -6 15 -12 16 -102 5 -160 1 -153 -11 3 -5 2 -10 -4 -10 -12 0 -18
22 -20 74 -1 21 -8 51 -16 65 -13 24 -14 20 -9 -49 3 -41 7 -80 9 -87 2 -6 -4
-40 -14 -75 -19 -67 -14 -127 13 -157 12 -13 12 -21 2 -46 -23 -54 -1 -275 26
-259 5 3 7 12 4 20 -3 8 -1 14 4 14 6 0 10 5 10 11 0 5 -5 7 -12 3 -8 -5 -9 3
-4 32 5 21 9 52 9 67 1 15 8 32 16 37 12 7 12 11 2 24 -7 9 -11 25 -8 37 4 15
2 19 -8 15 -9 -3 -12 0 -9 9 3 7 13 16 22 20 14 5 14 7 2 16 -13 8 -13 10 0
18 8 5 18 7 22 5 5 -3 11 1 14 9 7 18 72 17 83 -2 5 -7 14 -10 20 -7 6 4 9 12
6 17 -4 5 -2 9 3 9 15 0 21 -62 8 -82 -5 -9 -19 -19 -31 -22 -11 -2 -2 -4 20
-3 32 2 40 -2 43 -17 2 -11 10 -26 18 -34 22 -21 17 -66 -11 -96 -26 -28 -32
-45 -15 -47 6 -1 16 -2 23 -3 7 -1 11 -15 11 -39 -1 -20 2 -37 7 -37 5 0 9 -7
9 -15 0 -8 -6 -15 -13 -15 -21 0 -39 -46 -24 -62 7 -7 21 -32 31 -56 11 -23
22 -40 25 -36 3 3 6 47 7 97 0 51 5 124 12 162 12 74 7 139 -11 128 -6 -4 -8
3 -4 18 17 72 19 100 6 116 -19 22 -21 73 -2 73 11 0 13 15 9 78 -3 42 -8 85
-11 94 -10 26 -12 151 -3 164 15 21 7 229 -10 259 -5 10 -7 36 -5 59 4 34 1
46 -21 69 -14 15 -26 38 -26 49 0 32 -40 108 -56 108 -8 0 -14 4 -14 9 0 21
-54 72 -71 68 -10 -3 -26 1 -36 9 -17 13 -17 14 0 25 14 8 15 14 7 24 -8 10
-7 21 4 43 10 19 13 43 9 68 -5 38 -5 38 12 19 16 -20 16 -20 12 3 -4 16 4 29
31 52 31 25 34 31 22 45 -8 9 -27 23 -42 31 -26 13 -29 19 -22 47 13 64 18 67
76 53 29 -7 71 -22 93 -34 22 -11 68 -26 102 -33 100 -19 184 -6 263 39 59 34
72 38 64 18 -3 -8 -1 -17 5 -21 17 -10 13 -71 -5 -86 -9 -7 -25 -18 -37 -24
-11 -5 -25 -18 -31 -28 -9 -15 -5 -23 23 -47 40 -35 35 -34 66 -14 24 16 25
16 25 -9 0 -14 9 -53 19 -87 19 -61 19 -62 0 -67 -10 -3 -19 -12 -19 -20 0
-10 6 -13 16 -9 45 17 64 18 64 2 0 -10 -9 -15 -27 -14 -45 1 -106 -14 -124
-31 -37 -34 -80 -95 -75 -107 3 -7 -5 -14 -16 -17 -14 -4 -19 -11 -15 -21 4
-9 -3 -25 -17 -38 -14 -13 -29 -46 -36 -77 -11 -48 -11 -56 4 -66 20 -15 21
-25 2 -25 -15 0 -36 -49 -36 -86 0 -14 6 -24 14 -24 9 0 12 -7 9 -20 -3 -10
-10 -18 -17 -17 -14 3 -19 -100 -6 -108 6 -4 10 -11 10 -16 0 -6 -4 -7 -10 -4
-5 3 -15 3 -20 0 -15 -9 9 -48 26 -41 8 3 14 1 14 -3 0 -5 -7 -11 -15 -15 -20
-7 -20 -66 0 -66 8 0 15 -4 15 -10 0 -5 -9 -10 -20 -10 -18 0 -20 -7 -22 -82
-1 -46 -3 -101 -5 -123 -2 -22 -4 -151 -6 -287 -3 -237 -3 -248 15 -248 16 0
18 6 15 38 -1 20 -6 43 -11 50 -4 7 -1 15 8 18 19 7 20 27 4 54 -10 15 -10 22
0 32 20 20 24 3 23 -95 l0 -95 44 0 c41 0 45 2 45 24 0 29 11 31 28 3 8 -13
21 -19 35 -17 25 3 30 38 15 95 -6 21 -5 40 2 52 7 13 7 22 0 26 -5 3 -10 12
-10 18 0 7 4 6 10 -3 7 -11 10 -11 10 -2 0 7 8 12 18 10 14 -2 16 3 14 31 -3
42 -3 41 -38 44 -26 2 -29 6 -32 42 l-2 40 19 -22 c33 -39 49 -30 43 25 -5 50
-14 62 -49 62 -17 0 -21 5 -19 28 5 51 17 72 41 72 17 0 27 9 36 33 l13 32 3
-28 c3 -16 11 -31 19 -34 8 -3 12 -13 9 -22 -3 -12 4 -20 27 -29 18 -6 35 -8
40 -4 12 12 12 126 0 149 -7 12 -9 28 -6 36 3 8 1 18 -5 22 -6 3 -11 14 -11
24 0 11 -9 21 -21 24 -12 3 -19 10 -16 14 11 17 -46 13 -59 -4 -10 -15 -15
-16 -26 -5 -8 8 -9 15 -3 20 17 11 12 40 -10 56 -17 12 -20 24 -18 71 2 31 7
64 12 72 7 14 10 13 20 -5 14 -27 31 -29 31 -4 0 10 -13 28 -30 40 -24 18 -30
20 -30 7 0 -8 -5 -15 -11 -15 -7 0 -9 10 -7 25 3 14 1 25 -3 25 -5 0 -9 14 -9
30 0 20 5 30 15 30 18 0 20 17 3 22 -8 3 -6 7 5 11 9 3 23 -1 33 -10 13 -13
20 -14 35 -5 25 16 49 15 49 -1 0 -17 27 -17 60 0 14 7 19 13 13 13 -7 0 -13
6 -13 14 0 7 -11 21 -25 30 -19 12 -25 25 -25 52 0 34 -1 35 -17 18 -13 -13
-14 -19 -5 -22 25 -8 11 -29 -27 -40 -53 -16 -54 -16 -47 22 4 20 2 37 -4 41
-11 7 -14 46 -2 44 19 -3 33 2 27 10 -3 5 -1 12 4 16 6 3 8 11 5 18 -2 7 2 21
9 31 13 18 14 17 39 -5 14 -13 31 -35 37 -47 7 -13 15 -21 18 -19 2 3 0 15 -7
26 -9 17 -8 21 6 21 9 0 27 -9 41 -20 l26 -20 19 42 c11 24 21 61 23 82 4 52
40 77 79 56 15 -7 26 -22 26 -32 0 -10 4 -18 9 -18 12 0 51 -112 51 -149 0
-17 1 -31 3 -31 16 0 126 -23 142 -29 11 -5 45 -16 75 -26 95 -31 141 -57 195
-110 65 -63 91 -135 100 -281 13 -202 24 -273 51 -329 31 -66 64 -178 71 -241
5 -48 9 -54 58 -89 47 -35 73 -68 89 -117 5 -17 28 -18 291 -18 l285 0 0 1920
0 1920 -1920 0 -1920 0 0 -1920z m1895 1694 c14 -9 25 -14 25 -12 0 18 159
-155 176 -192 12 -25 31 -54 43 -64 11 -11 21 -26 21 -34 0 -8 11 -23 25 -34
65 -51 74 -148 13 -148 -32 0 -19 -19 17 -26 35 -6 35 -7 37 -63 1 -31 1 -65
0 -76 -11 -109 -11 -145 -2 -145 13 0 13 -93 -1 -107 -7 -7 -7 -23 1 -53 6
-24 9 -54 5 -67 -4 -16 -2 -22 5 -18 5 3 10 23 10 43 0 72 19 16 26 -77 6 -75
4 -92 -6 -86 -9 5 -10 2 -6 -13 4 -12 2 -40 -5 -64 -10 -36 -13 -40 -20 -23
-4 11 -8 16 -8 11 -1 -6 -7 -2 -14 8 -7 9 -19 16 -27 14 -16 -4 -40 37 -40 70
0 28 -17 62 -39 79 -26 20 -80 15 -138 -13 -46 -21 -59 -24 -87 -14 -34 11
-62 10 -83 -3 -9 -6 -13 -2 -13 12 0 12 -4 21 -10 21 -5 0 -10 -9 -10 -20 0
-17 -3 -18 -19 -8 -10 6 -26 24 -35 39 -21 35 -83 60 -130 52 -26 -4 -46 -17
-66 -42 -17 -19 -30 -40 -30 -46 0 -15 -69 -92 -70 -77 0 7 7 27 16 43 8 17
13 36 11 42 -6 17 26 78 55 105 43 40 77 43 162 14 87 -28 111 -22 83 21 -31
48 -171 72 -242 43 l-35 -15 -1 32 c-1 26 -4 20 -15 -26 -8 -32 -21 -69 -30
-82 -8 -13 -18 -49 -21 -80 -3 -30 -9 -58 -14 -61 -12 -7 -3 106 10 119 6 6
11 30 11 52 0 23 3 45 8 49 4 4 8 17 9 29 0 12 5 53 10 90 8 54 7 72 -5 88
-12 18 -12 23 4 40 15 17 16 19 1 19 -9 0 -22 -9 -29 -20 -19 -30 -28 -24 -28
20 0 42 9 50 30 25 16 -19 40 -19 40 0 0 9 -7 27 -16 41 -9 13 -18 41 -21 62
-2 20 -7 71 -12 112 -8 83 -38 160 -76 198 -32 32 -32 44 3 40 34 -4 90 -53
107 -95 8 -18 20 -33 28 -33 25 0 67 48 68 77 0 15 4 37 9 48 8 19 8 19 18 -5
6 -14 12 -20 13 -15 1 6 3 15 4 20 3 15 15 48 24 65 5 8 20 14 33 13 17 -1 29
6 38 21 10 20 23 25 80 30 48 5 70 12 74 22 9 23 -2 34 -35 34 -16 0 -29 5
-29 11 0 16 83 4 115 -17z m-586 -741 c-21 -52 -21 -57 -6 -87 18 -34 34 -136
41 -265 5 -73 3 -87 -14 -109 -11 -13 -20 -31 -20 -38 0 -8 -6 -14 -12 -14
-21 0 -41 17 -34 28 3 6 1 14 -5 18 -8 5 -9 42 -4 129 4 75 3 125 -3 129 -13
8 -39 -58 -47 -117 -4 -26 -12 -64 -19 -84 l-13 -37 -13 63 c-16 76 -17 203
-3 251 6 19 11 27 12 17 1 -10 6 -15 11 -12 7 4 7 13 0 26 -7 13 -8 25 -1 37
6 9 11 13 11 7 0 -5 9 8 19 30 21 47 90 127 102 119 5 -3 10 1 10 8 1 7 4 0 6
-15 3 -16 -5 -53 -18 -84z m77 40 c-7 -17 -8 -17 -17 0 -12 21 -2 44 13 29 6
-6 8 -19 4 -29z m324 -388 c12 -15 7 -45 -7 -45 -20 1 -32 18 -26 38 6 26 16
28 33 7z m-130 -25 c0 -5 -7 -7 -15 -4 -8 4 -12 10 -9 15 6 11 24 2 24 -11z
m450 -16 c0 -19 -4 -25 -15 -20 -17 6 -18 4 -9 -18 3 -9 11 -13 16 -10 5 4 21
1 34 -5 13 -6 36 -17 52 -23 47 -22 66 -48 91 -126 8 -27 8 -37 -4 -49 -8 -8
-15 -28 -15 -44 0 -16 -4 -29 -10 -29 -9 0 -13 12 -24 77 -8 47 -50 109 -96
139 -22 15 -40 32 -40 38 0 6 -9 22 -20 36 -19 25 -19 25 3 42 30 24 37 22 37
-8z m-308 -31 c-2 -12 -14 -25 -26 -29 -56 -16 -94 -39 -121 -75 -16 -21 -35
-38 -41 -39 -7 0 -11 -14 -10 -32 1 -23 -4 -33 -16 -36 -10 -2 -18 1 -18 7 0
6 5 10 12 8 6 -1 14 6 16 15 2 13 -1 16 -12 12 -10 -4 -19 3 -27 20 -10 22 -9
32 7 62 10 19 33 44 49 54 17 11 24 20 17 20 -7 0 -10 5 -7 10 3 6 23 10 43
10 20 0 44 4 52 10 8 5 30 8 50 7 32 -1 36 -4 32 -24z m-332 -67 c0 -16 -18
-31 -27 -22 -8 8 5 36 17 36 5 0 10 -6 10 -14z m871 -156 c7 0 9 -9 6 -23 -7
-26 5 -49 23 -45 7 2 17 -10 22 -27 11 -36 3 -147 -12 -175 -11 -20 -13 -19
-46 21 -36 43 -42 67 -22 87 7 7 8 16 2 24 -6 7 -9 45 -7 83 3 103 3 102 13
78 5 -13 14 -23 21 -23z m-894 -17 c-3 -10 -5 -2 -5 17 0 19 2 27 5 18 2 -10
2 -26 0 -35z m2 -81 c1 -7 -3 -10 -9 -7 -5 3 -10 18 -9 33 0 24 1 25 9 7 5
-11 9 -26 9 -33z m486 8 c-3 -6 -10 -10 -16 -10 -10 0 -12 33 -2 44 9 9 26
-22 18 -34z m-380 -87 c4 -21 11 -44 17 -50 8 -10 6 -13 -4 -13 -14 0 -38 59
-38 94 0 30 17 8 25 -31z m675 36 c0 8 2 12 5 9 9 -9 -6 -58 -16 -52 -5 3 -9
17 -9 32 0 21 2 24 10 12 8 -12 10 -12 10 -1z m95 -149 c8 -16 15 -36 15 -44
0 -8 10 -31 21 -51 12 -20 26 -58 31 -83 4 -26 21 -68 38 -94 21 -35 25 -48
15 -48 -8 0 -15 8 -16 18 0 13 -2 14 -6 2 -10 -23 -31 -41 -38 -31 -3 5 -28 8
-56 6 -46 -4 -50 -2 -44 16 4 12 1 27 -8 37 -21 25 -44 94 -39 120 2 15 10 22
25 22 12 0 31 7 41 15 16 12 22 12 28 2 5 -8 8 -3 8 13 -1 24 -20 60 -34 60
-3 0 -6 -7 -6 -15 0 -8 -7 -15 -15 -15 -11 0 -15 11 -15 43 0 24 3 47 7 50 14
15 33 6 48 -23z m-845 -358 c0 -13 -12 -22 -22 -16 -10 6 -1 24 13 24 5 0 9
-4 9 -8z m861 -70 c-7 -2 -18 1 -23 6 -8 8 -4 9 13 5 13 -4 18 -8 10 -11z m49
-24 c0 -5 -4 -8 -10 -8 -5 0 -10 10 -10 23 0 18 2 19 10 7 5 -8 10 -18 10 -22z
m-228 -173 c-2 -14 -8 -25 -13 -25 -12 0 -11 7 1 31 14 26 18 24 12 -6z m-97
-5 c3 -5 2 -10 -4 -10 -5 0 -13 5 -16 10 -3 6 -2 10 4 10 5 0 13 -4 16 -10z
m-348 -72 c-3 -8 -6 -5 -6 6 -1 11 2 17 5 13 3 -3 4 -12 1 -19z m423 -59 c0
-11 -4 -17 -10 -14 -5 3 -10 13 -10 21 0 8 5 14 10 14 6 0 10 -9 10 -21z
m-113 -131 c-3 -8 -6 -5 -6 6 -1 11 2 17 5 13 3 -3 4 -12 1 -19z m-277 -4 c0
-8 -5 -12 -10 -9 -6 4 -8 11 -5 16 9 14 15 11 15 -7z m300 -63 c0 -17 -12 -41
-21 -41 -5 0 -9 11 -9 25 0 16 6 25 15 25 8 0 15 -4 15 -9z m-313 -138 c-3
-10 -5 -2 -5 17 0 19 2 27 5 18 2 -10 2 -26 0 -35z m393 -109 c0 -8 -5 -12
-10 -9 -6 4 -8 11 -5 16 9 14 15 11 15 -7z m-78 -106 c-9 -9 -12 -7 -12 12 0
19 3 21 12 12 9 -9 9 -15 0 -24z m-82 -14 c0 -21 -4 -33 -10 -29 -17 10 -11
65 7 65 2 0 3 -16 3 -36z m0 -104 c0 -22 -4 -40 -10 -40 -11 0 -13 39 -4 64
10 26 14 19 14 -24z m-233 -72 c-3 -7 -5 -2 -5 12 0 14 2 19 5 13 2 -7 2 -19
0 -25z m-240 -70 c-3 -7 -5 -2 -5 12 0 14 2 19 5 13 2 -7 2 -19 0 -25z m463
-118 c0 -5 -5 -10 -11 -10 -5 0 -7 5 -4 10 3 6 8 10 11 10 2 0 4 -4 4 -10z"/>
<path d="M1702 3376 c2 -16 9 -31 17 -34 10 -3 11 2 6 19 -12 39 -27 48 -23
15z"/>
<path d="M2026 3344 c-7 -18 1 -37 13 -29 5 2 11 14 14 25 6 24 -18 28 -27 4z"/>
<path d="M1440 3225 c-8 -10 -9 -25 -4 -49 l9 -34 29 23 c27 22 28 24 13 40
-10 9 -17 21 -17 26 0 14 -16 11 -30 -6z"/>
<path d="M1880 2852 c0 -6 -6 -9 -12 -7 -16 6 -19 -167 -3 -175 9 -5 27 178
18 189 -2 2 -3 -1 -3 -7z"/>
<path d="M2242 2750 c0 -14 2 -19 5 -12 2 6 2 18 0 25 -3 6 -5 1 -5 -13z"/>
<path d="M2041 2660 c-50 -11 -77 -31 -68 -53 5 -12 21 -14 86 -10 117 8 136
-9 156 -139 7 -44 17 -48 33 -13 14 31 16 75 3 75 -6 0 -18 27 -27 60 -9 33
-22 60 -29 60 -8 0 -15 5 -17 11 -5 15 -83 20 -137 9z"/>
<path d="M2283 2515 c0 -22 2 -30 4 -17 2 12 2 30 0 40 -3 9 -5 -1 -4 -23z"/>
<path d="M2211 1766 c-8 -10 -8 -16 2 -25 8 -6 16 -8 20 -5 3 3 13 -6 22 -20
10 -14 21 -26 26 -26 16 0 -2 54 -23 73 -24 21 -32 21 -47 3z"/>
<path d="M1311 2044 c0 -11 3 -14 6 -6 3 7 2 16 -1 19 -3 4 -6 -2 -5 -13z"/>
<path d="M1250 1872 c-40 -19 -50 -42 -19 -42 11 0 30 -5 41 -11 24 -13 33 -5
41 36 7 37 -11 42 -63 17z"/>
<path d="M698 1303 c-17 -3 -28 -11 -28 -20 0 -13 9 -14 54 -9 48 6 56 5 65
-13 26 -47 -1 -99 -36 -70 -18 16 -26 6 -26 -34 0 -45 10 -62 29 -46 23 19 44
3 44 -35 0 -29 -4 -37 -24 -42 -45 -11 -69 0 -101 46 -36 51 -75 75 -107 64
-20 -6 -19 -8 14 -25 20 -10 39 -28 43 -39 3 -11 25 -38 48 -60 33 -31 50 -40
77 -40 37 0 75 20 98 52 12 17 15 17 35 3 59 -42 119 17 91 89 -9 24 -34 1
-35 -33 -1 -19 -4 -15 -9 14 -4 22 -10 47 -13 55 -5 11 5 20 33 33 31 14 40
24 40 43 0 27 -15 32 -24 8 -8 -22 -60 -15 -64 9 -2 10 4 24 14 31 13 10 14
15 5 21 -8 4 -25 -2 -42 -14 l-30 -22 -26 20 c-25 20 -59 24 -125 14z m182
-194 c0 -10 -4 -19 -10 -19 -5 0 -10 12 -10 26 0 14 4 23 10 19 6 -3 10 -15
10 -26z"/>
<path d="M1373 1255 c-13 -29 -13 -29 22 -13 26 12 29 31 4 36 -8 1 -19 -9
-26 -23z"/>
<path d="M1180 1141 c0 -17 3 -18 25 -8 32 15 32 27 0 27 -18 0 -25 -5 -25
-19z"/>
<path d="M1570 1058 c0 -17 18 -44 24 -37 8 7 -5 49 -15 49 -5 0 -9 -6 -9 -12z"/>
<path d="M1370 986 c0 -9 5 -16 10 -16 6 0 10 4 10 9 0 6 -4 13 -10 16 -5 3
-10 -1 -10 -9z"/>
<path d="M1420 975 c0 -8 4 -15 10 -15 5 0 7 7 4 15 -4 8 -8 15 -10 15 -2 0
-4 -7 -4 -15z"/>
<path d="M2100 870 c0 -5 5 -10 11 -10 5 0 7 5 4 10 -3 6 -8 10 -11 10 -2 0
-4 -4 -4 -10z"/>
<path d="M2151 864 c0 -11 3 -14 6 -6 3 7 2 16 -1 19 -3 4 -6 -2 -5 -13z"/>
<path d="M2080 447 c0 -19 47 -40 56 -26 3 6 1 16 -5 22 -16 16 -51 19 -51 4z"/>
<path d="M2467 433 c-10 -13 -15 -28 -11 -35 4 -7 3 -8 -4 -4 -8 5 -12 -5 -12
-34 0 -27 -5 -43 -15 -46 -8 -4 -15 -15 -15 -25 0 -10 -4 -19 -9 -19 -5 0 -12
-15 -15 -32 -4 -18 -9 -45 -13 -61 -3 -15 3 -61 12 -102 l18 -75 103 0 103 0
-14 28 c-24 48 -33 76 -40 114 -3 20 -12 39 -21 42 -10 4 -13 13 -9 25 3 11 1
22 -5 26 -5 3 -10 21 -10 38 0 24 3 28 10 17 8 -12 10 -9 10 11 0 15 -7 29
-15 33 -10 4 -14 13 -10 28 3 13 -1 39 -8 59 l-12 36 -18 -24z"/>
<path d="M2190 299 c0 -32 -3 -40 -15 -35 -9 3 -15 0 -15 -9 0 -8 -4 -15 -9
-15 -16 0 -17 -34 -2 -46 9 -7 15 -27 14 -50 0 -26 1 -30 4 -11 5 28 18 36 26
15 3 -7 6 2 6 21 1 29 -1 32 -14 21 -13 -11 -15 -8 -15 14 0 14 6 26 13 26 8
0 13 19 15 55 2 30 1 55 -2 55 -3 0 -6 -18 -6 -41z"/>
<path d="M871 304 c0 -11 3 -14 6 -6 3 7 2 16 -1 19 -3 4 -6 -2 -5 -13z"/>
<path d="M1511 234 c0 -11 3 -14 6 -6 3 7 2 16 -1 19 -3 4 -6 -2 -5 -13z"/>
<path d="M1444 216 c-3 -8 -1 -24 6 -35 8 -15 8 -21 0 -21 -6 0 -2 -14 11 -31
23 -32 49 -27 34 8 -5 10 -7 22 -6 27 3 15 -20 66 -31 66 -5 0 -11 -6 -14 -14z"/>
<path d="M822 180 c0 -14 2 -19 5 -12 2 6 2 18 0 25 -3 6 -5 1 -5 -13z"/>
<path d="M1401 121 c1 -38 -2 -74 -5 -79 -12 -20 6 -42 36 -42 28 0 29 1 27
48 -3 58 -7 66 -25 51 -9 -7 -14 -8 -14 -1 0 6 4 12 10 14 12 4 -7 78 -20 78
-6 0 -9 -31 -9 -69z"/>
<path d="M1565 131 c-3 -6 4 -15 15 -21 17 -9 20 -8 20 10 0 20 -24 28 -35 11z"/>
<path d="M2080 120 c0 -5 5 -10 10 -10 6 0 10 5 10 10 0 6 -4 10 -10 10 -5 0
-10 -4 -10 -10z"/>
<path d="M2156 62 c-2 -4 -1 -14 5 -22 7 -12 9 -10 9 8 0 23 -5 28 -14 14z"/>
</g>
</svg>
